6fcd235f0c165f2c5f4431f9e0d60d28 *tests/data/fate/pcm_dvd-24-2-48000.vob
8218624 tests/data/fate/pcm_dvd-24-2-48000.vob
#tb 0: 1/48000
#media_type 0: audio
#codec_id 0: pcm_s24le
#sample_rate 0: 48000
#channel_layout_name 0: stereo
0,          0,          0,      332,     1992, 0x13af13b9
0,        336,        336,      334,     2004, 0x178ac9be
0,        672,        672,      336,     2016, 0xc0c9266b
0,       1008,       1008,      334,     2004, 0x0266b229
0,       1344,       1344,      336,     2016, 0xe821e124
0,       1680,       1680,      334,     2004, 0xd7cedefd
0,       2016,       2016,      336,     2016, 0xb817b01c
0,       2352,       2352,      334,     2004, 0xd7a8e953
0,       2688,       2688,      336,     2016, 0xc20cf5fa
0,       3024,       3024,      334,     2004, 0xe5ee903e
0,       3360,       3360,      336,     2016, 0xbe20ec1d
0,       3696,       3696,      334,     2004, 0x9708d462
0,       4032,       4032,      336,     2016, 0x9e82f06c
0,       4368,       4368,      334,     2004, 0x5069d037
0,       4704,       4704,      336,     2016, 0xcfb6effe
0,       5040,       5040,      334,     2004, 0xe13c128a
0,       5376,       5376,      336,     2016, 0x8564d28e
0,       5712,       5712,      334,     2004, 0x116dc5c0
0,       6048,       6048,      336,     2016, 0xf0ca183b
0,       6384,       6384,      334,     2004, 0x39e5d580
0,       6720,       6720,      336,     2016, 0xaacbf84e
0,       7056,       7056,      334,     2004, 0x50b7ed68
0,       7392,       7392,      336,     2016, 0x83451550
0,       7728,       7728,      334,     2004, 0x4523eebf
0,       8064,       8064,      336,     2016, 0x5781de58
0,       8400,       8400,      334,     2004, 0x66f2e12a
0,       8736,       8736,      336,     2016, 0xdaebe5e0
0,       9072,       9072,      334,     2004, 0x9b83d9df
0,       9408,       9408,      192,     1152, 0xdaf44e66
